<?xml version="1.0" encoding="UTF-8" standalone="no"?>
<svg
   xmlns:osb="http://www.openswatchbook.org/uri/2009/osb"
   xmlns:dc="http://purl.org/dc/elements/1.1/"
   xmlns:cc="http://creativecommons.org/ns#"
   xmlns:rdf="http://www.w3.org/1999/02/22-rdf-syntax-ns#"
   xmlns:svg="http://www.w3.org/2000/svg"
   xmlns="http://www.w3.org/2000/svg"
   xmlns:sodipodi="http://sodipodi.sourceforge.net/DTD/sodipodi-0.dtd"
   xmlns:inkscape="http://www.inkscape.org/namespaces/inkscape"
   height="128"
   version="1.1"
   width="128"
   style="overflow: hidden; position: relative;"
   id="svg3739"
   sodipodi:docname="disabled.svg"
   inkscape:version="0.92.4 (5da689c313, 2019-01-14)">
  <metadata
     id="metadata3743">
    <rdf:RDF>
      <cc:Work
         rdf:about="">
        <dc:format>image/svg+xml</dc:format>
        <dc:type
           rdf:resource="http://purl.org/dc/dcmitype/StillImage" />
        <dc:title></dc:title>
      </cc:Work>
    </rdf:RDF>
  </metadata>
  <sodipodi:namedview
     pagecolor="#ffffff"
     bordercolor="#666666"
     borderopacity="1"
     objecttolerance="10"
     gridtolerance="10"
     guidetolerance="10"
     inkscape:pageopacity="0"
     inkscape:pageshadow="2"
     inkscape:window-width="1920"
     inkscape:window-height="1000"
     id="namedview3741"
     showgrid="false"
     inkscape:pagecheckerboard="true"
     inkscape:zoom="4.2923591"
     inkscape:cx="-26.27978"
     inkscape:cy="64"
     inkscape:window-x="-11"
     inkscape:window-y="-11"
     inkscape:window-maximized="1"
     inkscape:current-layer="svg3739" />
  <desc
     style="-webkit-tap-highlight-color: rgba(0, 0, 0, 0);"
     id="desc3729">Created with Raphaël 2.2.0</desc>
  <defs
     style="-webkit-tap-highlight-color: rgba(0, 0, 0, 0);"
     id="defs3731">
    <linearGradient
       id="linearGradient6585"
       osb:paint="solid">
      <stop
         style="stop-color:#aaeeff;stop-opacity:1;"
         offset="0"
         id="stop6583" />
    </linearGradient>
  </defs>
  <rect
     x="6"
     y="6"
     width="116"
     height="116"
     rx="10"
     ry="10"
     fill="#737370"
     stroke="#000"
     stroke-width="0"
     style="-webkit-tap-highlight-color: rgba(0, 0, 0, 0);"
     id="rect3733" />
  <g
     id="XMLID_1_"
     transform="matrix(0.18660195,0,0,0.18660195,-9.3629667,39.060753)"
     style="fill:#ffffff;fill-opacity:1;stroke-width:5.35900116">
    <path
       d="m 336,157.4 h 135.7 c -32.4,-21.3 -44.4,-57.2 -44.4,-86.2 0,-18.8 2.6,-46.9 4.3,-74.2 1.7,-23 3.4,-44.4 3.4,-56.3 0,-29 -11.9,-71.7 -29,-71.7 -4.3,0 -8.5,1.7 -11.1,5.1 -17.1,17.1 -17.1,68.3 -17.1,68.3 0,33.3 2.6,52.1 5.1,68.3 2.6,17.9 5.1,33.3 3.4,61.4 -3.4,46.9 -31.6,73.4 -50.3,85.3 z"
       id="XMLID_3_"
       inkscape:connector-curvature="0"
       style="fill:#ffffff;fill-opacity:1;stroke-width:5.35900116" />
    <rect
       height="8.5"
       width="167.3"
       y="201.8"
       x="318"
       id="XMLID_4_"
       style="fill:#ffffff;fill-opacity:1;stroke-width:5.35900116" />
    <rect
       height="17.9"
       width="167.3"
       y="218.89999"
       x="318"
       id="XMLID_5_"
       style="fill:#ffffff;fill-opacity:1;stroke-width:5.35900116" />
    <rect
       height="17.9"
       width="167.3"
       y="175.3"
       x="318"
       id="XMLID_6_"
       style="fill:#ffffff;fill-opacity:1;stroke-width:5.35900116" />
    <path
       d="m 290.7,364.8 c -1.7,0.9 -2.6,3.4 -1.7,5.1 0.9,2.6 3.4,5.1 8.5,6 6,0.9 13.7,1.7 22.2,2.6 v 0 c 11.9,0.9 23,-23 29.9,-41.8 0,0 -3.4,26.5 -7.7,43.5 7.7,0 16.2,0.9 25.6,0.9 36.7,0 69.1,-2.6 87,-6.8 10.2,-2.6 17.1,-9.4 19.6,-17.9 7.7,-31.6 10.2,-85.3 11.1,-101.5 H 318 c 0,18.6 -1.7,92 -27.3,109.9 z"
       id="XMLID_7_"
       inkscape:connector-curvature="0"
       style="fill:#ffffff;fill-opacity:1;stroke-width:5.35900116" />
  </g>
  <rect
     style="fill:#aaeeff;fill-opacity:1;stroke:#ffffff;stroke-width:1;stroke-opacity:1"
     id="rect6625"
     width="112.31045"
     height="0.42483458"
     x="7.5653782"
     y="-45.953331"
     rx="0"
     ry="0"
     transform="scale(1,-1)" />
  <rect
     transform="scale(1,-1)"
     ry="0"
     rx="0"
     y="-82.030556"
     x="7.5653782"
     height="0.42483458"
     width="112.31045"
     id="rect6627"
     style="fill:#aaeeff;fill-opacity:1;stroke:#ffffff;stroke-width:1;stroke-opacity:1" />
  <rect
     style="fill:#aaeeff;fill-opacity:1;stroke:#ffffff;stroke-width:1;stroke-opacity:1"
     id="rect6629"
     width="0.65894467"
     height="110.70271"
     x="41.207207"
     y="8.2368088" />
  <rect
     y="8.2368088"
     x="85.333336"
     height="110.70271"
     width="0.65894467"
     id="rect6631"
     style="fill:#aaeeff;fill-opacity:1;stroke:#ffffff;stroke-width:1;stroke-opacity:1" />
</svg>
